<svg width="25" height="29" viewBox="0 0 25 29" fill="none" xmlns="http://www.w3.org/2000/svg">
<g clip-path="url(#clip0_1302_526)">
<path d="M24.7523 21.6557V25.1203H21.8459C18.7447 25.0228 17.0877 23.3481 17.0877 20.2026V12.2899H15.0586V9.25068H17.0877V5.84814H21.3763V9.21523H24.6548V12.2456H21.3763V19.7773C21.3763 20.7962 21.5801 21.6114 23.1485 21.6114L24.7523 21.6557Z" fill="white"/>
<path d="M-2.03495 17.2166V16.9862C-2.08134 15.9671 -1.92614 14.9488 -1.57826 13.9898C-1.23038 13.0308 -0.696654 12.1498 -0.0076739 11.3975C0.681306 10.6451 1.512 10.0361 2.43678 9.6054C3.36157 9.17468 4.36226 8.9307 5.38151 8.88745C5.5853 8.88745 5.79796 8.88745 6.00176 8.88745C10.0511 8.88745 13.6043 11.2444 13.6043 16.8621V18.0583H2.35113C2.46632 20.6457 3.86631 22.1077 6.22328 22.1077C8.25239 22.1077 9.20049 21.2216 9.47517 19.928H13.5245C13.0283 23.3039 10.3347 25.1824 6.07264 25.1824C1.39416 25.1469 -2.03495 22.1875 -2.03495 17.2166ZM9.38657 15.3469C9.23594 12.99 8.04859 11.8558 5.98403 11.8558C3.91948 11.8558 2.73213 13.1318 2.43973 15.3469H9.38657Z" fill="white"/>
</g>
<defs>
<clipPath id="clip0_1302_526">
<rect width="140" height="28.3544" fill="white" transform="translate(-115)"/>
</clipPath>
</defs>
</svg>
