<svg width="16" height="16" viewBox="0 0 16 16" fill="none" xmlns="http://www.w3.org/2000/svg">
<path d="M4.76666 14.0666C4.6 13.9 4.51666 13.7026 4.51666 13.4746C4.51666 13.2471 4.6 13.05 4.76666 12.8833L9.65 7.99996L4.75 3.09996C4.59444 2.9444 4.51666 2.74996 4.51666 2.51663C4.51666 2.28329 4.6 2.08329 4.76666 1.91663C4.93333 1.74996 5.13066 1.66663 5.35866 1.66663C5.58622 1.66663 5.78333 1.74996 5.95 1.91663L11.55 7.53329C11.6167 7.59996 11.664 7.67218 11.692 7.74996C11.7196 7.82774 11.7333 7.91107 11.7333 7.99996C11.7333 8.08885 11.7196 8.17218 11.692 8.24996C11.664 8.32774 11.6167 8.39996 11.55 8.46663L5.93333 14.0833C5.77777 14.2388 5.58622 14.3166 5.35866 14.3166C5.13066 14.3166 4.93333 14.2333 4.76666 14.0666Z" fill="#929292"/>
</svg>
