<svg width="55" height="99" viewBox="0 0 55 99" fill="none" xmlns="http://www.w3.org/2000/svg">
<path fill-rule="evenodd" clip-rule="evenodd" d="M0 44.449L2.3913 48.4898C4.4837 54.551 9.2663 66.6735 13.75 56.5714C18.2337 46.4694 23.0163 18.1837 27.5 20.2041C31.9837 22.2245 36.7663 54.551 41.25 56.5714C45.7337 58.5918 50.5163 28.2857 52.6087 14.1429L55 0V99H52.6087C50.5163 99 45.7337 99 41.25 99C36.7663 99 31.9837 99 27.5 99C23.0163 99 18.2337 99 13.75 99C9.2663 99 4.4837 99 2.3913 99H0V44.449Z" fill="#006D77"/>
</svg>
